<svg width="36" height="36" viewBox="0 0 36 36" xmlns="http://www.w3.org/2000/svg">
<path fill="currentColor" d="M14.3207 24.1344H9.77026L15.6743 9.7056H19.8791L25.8047 24.1344H21.0671L20.0447 21.4488H15.3719L14.3207 24.1344ZM17.7047 14.7456L16.6391 18.144H18.7487L17.7047 14.7456Z"/>
<path fill="currentColor" d="M21.636 4.35601L20.8512 0.972006C20.8008 0.748806 20.5992 0.583206 20.3688 0.583206H15.7033C15.4729 0.583206 15.2713 0.741606 15.2137 0.964806L14.4289 4.34881C13.1977 4.67281 12.0169 5.16241 10.9153 5.80321L7.97045 3.96721C7.77605 3.84481 7.51685 3.87361 7.35845 4.03921L4.06086 7.33681C3.89526 7.50241 3.86646 7.75441 3.98886 7.95601L5.82485 10.9008C5.18405 12.0024 4.69446 13.1832 4.37046 14.4144L0.986456 15.1992C0.763256 15.2496 0.597656 15.4512 0.597656 15.6816V20.3472C0.597656 20.5776 0.756056 20.7792 0.986456 20.8296L4.37046 21.6144C4.69446 22.8456 5.18405 24.0264 5.82485 25.128L3.98886 28.0728C3.86646 28.2672 3.89526 28.5264 4.06086 28.6848L7.35845 31.9824C7.52405 32.148 7.77605 32.1768 7.97765 32.0544L10.9225 30.2184C10.9297 30.2256 11.9089 27.9216 11.9089 27.9216C8.55365 25.8912 6.30725 22.2048 6.30725 18C6.30725 11.5992 11.4985 6.40801 17.8993 6.40801C18.8496 6.40801 19.7785 6.52321 20.664 6.73921C20.6569 6.76081 21.6432 4.35601 21.636 4.35601Z"/>
<path fill="currentColor" d="M15.444 29.376L14.4504 31.752L15.2208 35.0784C15.2712 35.3016 15.4728 35.4672 15.7032 35.4672H20.3688C20.5992 35.4672 20.8008 35.3088 20.8584 35.0784L21.6432 31.6944C22.8744 31.3704 24.0552 30.8808 25.1568 30.24L28.1016 32.076C28.296 32.1984 28.5552 32.1696 28.7136 32.004L32.0112 28.7064C32.1768 28.5408 32.2056 28.2888 32.0832 28.0872L30.2472 25.1424C30.888 24.0408 31.3776 22.86 31.7016 21.6288L35.0856 20.844C35.3088 20.7936 35.4744 20.592 35.4744 20.3616V15.6888C35.4744 15.4584 35.316 15.2568 35.0856 15.2064L31.7016 14.4216C31.3776 13.1904 30.888 12.0096 30.2472 10.908L32.0832 7.9632C32.2056 7.7688 32.1768 7.5096 32.0112 7.3512L28.7136 4.0536C28.548 3.888 28.296 3.8592 28.0944 3.9816L25.1496 5.8176C25.1352 5.8104 24.0768 8.2224 24.0768 8.2224C27.324 10.2744 29.4768 13.896 29.4768 18.0216C29.4768 24.4224 24.2856 29.6136 17.8848 29.6136"/>
<path fill="currentColor" d="M19.8864 9.7128H17.7768C18.612 11.2968 19.0872 13.0968 19.0872 15.012C19.0872 16.0344 18.9504 17.0208 18.6984 17.964L18.756 18.1584H18.6408C18.2952 19.3536 17.7624 20.4624 17.0784 21.456H20.052L21.0744 24.1416H25.812L19.8864 9.7128Z"/>
</svg>
