<?xml version="1.0" standalone="no"?>
<!DOCTYPE svg PUBLIC "-//W3C//DTD SVG 20010904//EN"
 "http://www.w3.org/TR/2001/REC-SVG-20010904/DTD/svg10.dtd">
<svg version="1.0" xmlns="http://www.w3.org/2000/svg"
 width="512.000000pt" height="512.000000pt" viewBox="0 0 512.000000 512.000000"
 preserveAspectRatio="xMidYMid meet">

<g transform="translate(0.000000,512.000000) scale(0.100000,-0.100000)"
fill="#000000" stroke="none">
<path d="M3208 2319 c-291 -42 -524 -209 -652 -466 -103 -207 -114 -477 -29
-693 56 -140 155 -272 271 -360 66 -50 202 -123 253 -135 26 -6 26 -6 21 48
-13 163 186 350 479 448 217 72 440 49 498 -52 20 -36 25 -36 41 -1 85 183
102 413 46 605 -46 157 -114 265 -239 383 -129 123 -294 201 -477 223 -95 12
-130 12 -212 0z"/>
</g>
</svg>
